<?xml version="1.0" encoding="utf-8"?>
<svg
	id="heckler"
	version="1.0"

	x="0"
	y="0"
	viewBox="0 0 256 256"

	xml:space="preserve"
	xmlns="http://www.w3.org/2000/svg"
	xmlns:xlink="http://www.w3.org/1999/xlink"
>
	<rect fill="#fafafa" width="100%" height="100%"/>
	<rect fill="transparent" stroke="#0e0e0e" stroke-width="10" x="13" y="13" width="230" height="230"/>
	<path fill="#0e0e0e" d="M68,60.5c-2.2-3.9-6.6-5.8-13.2-5.8H50V50h21.3c5.8,0,10.2,0.7,13.1,2.2c2.9,1.5,5,4.2,6.3,8.2c1.3,3.9,1.9,9.9,1.9,18v42.5h70.9V50h21.3v127.6c0,8,1.1,14,3.3,17.8c2.2,3.9,6.6,5.8,13.2,5.8h4.7v4.7h-21.3c-5.8,0-10.2-0.7-13.1-2.2c-2.9-1.5-5-4.2-6.3-8.2c-1.3-3.9-1.9-9.9-1.9-18v-47.3H92.5V206H71.3V78.4C71.3,70.3,70.2,64.4,68,60.5z"/>
</svg>
